<?xml version="1.0" encoding="UTF-8"?>
<svg width="16px" height="16px" viewBox="0 0 16 16" version="1.1" xmlns="http://www.w3.org/2000/svg" xmlns:xlink="http://www.w3.org/1999/xlink">
    <!-- Generator: Sketch 44.1 (41455) - http://www.bohemiancoding.com/sketch -->
    <title>Artboard Copy 4</title>
    <desc>Created with Sketch.</desc>
    <defs></defs>
    <g id="Page-1" stroke="none" stroke-width="1" fill="none" fill-rule="evenodd" opacity="0.301460598">
        <g id="Artboard-Copy-4" fill-rule="nonzero" fill="#000000">
            <g id="iconmonstr-thumb-10-copy-4">
                <path d="M14.2706667,6.372 C13.464,6.338 12.3573333,6.18666667 11.6193333,5.876 C12.1586667,3.68733333 12.4546667,0 10.1553333,0 C8.91466667,0 8.588,1.112 8.26666667,2.21933333 C7.23466667,5.77666667 5.636,6.76333333 4,7.15333333 L4,6.66666667 L-1.77635684e-15,6.66666667 L-1.77635684e-15,14.6666667 L4,14.6666667 L4,14.064 C5.58533333,14.216 6.746,14.64 8.11266667,15.228 C8.95066667,15.5886667 10.148,16 11.67,16 C13.362,16 14.5333333,15.3353333 15.0093333,13.5426667 C15.3426667,12.2913333 16,8.70933333 16,8.04266667 C16,6.944 15.2213333,6.412 14.2706667,6.372 Z M2.66666667,13.3333333 L1.33333333,13.3333333 L1.33333333,8 L2.66666667,8 L2.66666667,13.3333333 Z M13.264,9.61133333 C13.264,9.61133333 13.398,9.618 13.9766667,9.59333333 C14.698,9.56266667 14.6773333,10.5726667 13.9793333,10.6353333 L12.8053333,10.7013333 C12.316,10.764 12.368,11.5033333 12.8993333,11.4826667 C12.8993333,11.4826667 13.3566667,11.4713333 13.6613333,11.4553333 C14.3733333,11.418 14.3386667,12.408 13.688,12.4893333 C13.4053333,12.5246667 12.5246667,12.566 12.5246667,12.566 C11.984,12.614 12.054,13.3893333 12.5973333,13.3266667 L13.1113333,13.306 C13.6593333,13.2566667 13.78,13.856 12.9166667,14.4133333 C11.872,15.0006667 9.79333333,14.5006667 8.63933333,14.004 C7.14666667,13.3606667 5.68066667,12.7146667 4,12.6666667 L4,8.66666667 C6.176,8.16733333 8.21866667,7.164 9.54733333,2.59133333 C10.146,0.53 10.6666667,1.304 10.6666667,2.974 C10.6666667,4.35466667 10.34,5.498 10.0526667,6.66266667 C10.76,7.02466667 12.3,7.59733333 14.1326667,7.7 C14.836,7.73933333 14.8153333,8.67 14.0986667,8.756 L13.1693333,8.86733333 C13.1693333,8.86733333 12.764,9.608 13.264,9.61133333 L13.264,9.61133333 Z" id="Shape" opacity="0.697803442"></path>
            </g>
        </g>
    </g>
</svg>