<?xml version="1.0" encoding="UTF-8"?>
<svg width="80px" height="80px" viewBox="0 0 80 80" version="1.1" xmlns="http://www.w3.org/2000/svg" xmlns:xlink="http://www.w3.org/1999/xlink">
    <!-- Generator: Sketch 44.1 (41455) - http://www.bohemiancoding.com/sketch -->
    <title>Artboard 4</title>
    <desc>Created with Sketch.</desc>
    <defs></defs>
    <g id="Page-1" stroke="none" stroke-width="1" fill="none" fill-rule="evenodd">
        <g id="Artboard-4">
            <circle id="Oval-3" fill="#2ACC84" cx="40" cy="40" r="40"></circle>
            <path d="M36.6257819,34 C35.7573619,33.1502239 35.8033912,31.8167292 36.6978945,30.9931001 L45.8239763,22.6144535 C46.2704608,22.2062704 46.8427587,22 47.4119881,22 C47.9888891,22 48.5627214,22.2120809 49,22.6391478 L36.6257819,34 Z M22.2735338,56.4471464 C22.0916708,56.6228288 22,56.8595533 22,57.0962779 C22,57.5920596 22.40069,58 22.8974864,58 C23.1222277,58 23.3484475,57.9151365 23.5229177,57.7454094 L25,56.298263 L23.7506161,55 L22.2735338,56.4471464 Z M34.3135787,40 L29.3182358,44.9146353 C26.63428,47.5558439 25.2652726,50.115488 24,53.6880156 L26.2047302,56 C29.7609351,54.8284364 32.3221624,53.5189545 35.0061182,50.8762629 L40,45.9601446 L34.3135787,40 L34.3135787,40 Z M50.0128773,24.3526052 L37,37.1423568 L43.5552037,44 L56.5680811,31.2132436 C57.521216,30.2757278 58,29.0297005 58,27.7821756 C58,23.6127764 53.0156217,21.4007784 50.0128773,24.3526052 Z" id="Shape" fill="#FFFFFF" fill-rule="nonzero"></path>
        </g>
    </g>
</svg>