<?xml version="1.0" encoding="UTF-8"?>
<svg width="24px" height="24px" viewBox="0 0 24 24" version="1.1" xmlns="http://www.w3.org/2000/svg" xmlns:xlink="http://www.w3.org/1999/xlink">
    <defs></defs>
    <g id="Page-1" stroke="none" stroke-width="1" fill="none" fill-rule="evenodd" opacity="0.496263587">
        <g id="Epic-2" transform="translate(-438.000000, -1423.000000)" fill-rule="nonzero" fill="#212A43">
            <g id="iconmonstr-facebook-4" transform="translate(438.000000, 1423.000000)">
                <path d="M12,0 C5.373,0 0,5.373 0,12 C0,18.627 5.373,24 12,24 C18.627,24 24,18.627 24,12 C24,5.373 18.627,0 12,0 Z M15,8 L13.65,8 C13.112,8 13,8.221 13,8.778 L13,10 L15,10 L14.791,12 L13,12 L13,19 L10,19 L10,12 L8,12 L8,10 L10,10 L10,7.692 C10,5.923 10.931,5 13.029,5 L15,5 L15,8 Z" id="Shape"></path>
            </g>
        </g>
    </g>
</svg>