<?xml version="1.0" encoding="UTF-8"?>
<svg width="16px" height="16px" viewBox="0 0 16 16" version="1.1" xmlns="http://www.w3.org/2000/svg" xmlns:xlink="http://www.w3.org/1999/xlink">
    <!-- Generator: Sketch 44.1 (41455) - http://www.bohemiancoding.com/sketch -->
    <title>Artboard</title>
    <desc>Created with Sketch.</desc>
    <defs></defs>
    <g id="Page-1" stroke="none" stroke-width="1" fill="none" fill-rule="evenodd" opacity="0.496206975">
        <g id="Artboard" fill-rule="nonzero" fill="#212A43">
            <path d="M8,0 C3.582,0 0,3.582 0,8 C0,12.418 3.582,16 8,16 C12.418,16 16,12.418 16,8 C16,3.582 12.418,0 8,0 Z M8,12.1666667 C7.54,12.1666667 7.16666667,11.7933333 7.16666667,11.3333333 C7.16666667,10.8733333 7.54,10.5 8,10.5 C8.46066667,10.5 8.83333333,10.8733333 8.83333333,11.3333333 C8.83333333,11.7933333 8.46066667,12.1666667 8,12.1666667 Z M9.30733333,8.21466667 C8.70466667,8.86466667 8.676,9.224 8.684,9.66666667 L7.34733333,9.66666667 C7.34266667,8.68333333 7.36066667,8.25 8.30133333,7.35466667 C8.68333333,6.992 8.98466667,6.70466667 8.94266667,6.14066667 C8.904,5.604 8.456,5.32333333 8.03266667,5.32333333 C7.56,5.32333333 7.00733333,5.67466667 7.00733333,6.66533333 L5.66733333,6.66533333 C5.66733333,5.06533333 6.60666667,4.032 8.06066667,4.032 C8.75133333,4.032 9.35533333,4.258 9.76066667,4.66866667 C10.1406667,5.054 10.3373333,5.58333333 10.33,6.20066667 C10.3193333,7.12266667 9.75866667,7.728 9.30733333,8.21466667 L9.30733333,8.21466667 Z" id="Shape-Copy-2"></path>
        </g>
    </g>
</svg>