<?xml version="1.0" encoding="UTF-8"?>
<svg width="12px" height="12px" viewBox="0 0 12 12" version="1.1" xmlns="http://www.w3.org/2000/svg" xmlns:xlink="http://www.w3.org/1999/xlink">
    <!-- Generator: Sketch 44.1 (41455) - http://www.bohemiancoding.com/sketch -->
    <title>Artboard 2</title>
    <desc>Created with Sketch.</desc>
    <defs></defs>
    <g id="Page-1" stroke="none" stroke-width="1" fill="none" fill-rule="evenodd">
        <g id="Artboard-2" fill-rule="nonzero" fill="#000000">
            <path d="M10.586,12 L6.8925,8.3065 C6.1985,8.7435 5.3805,9 4.5,9 C2.0145,9 0,6.9855 0,4.5 C0,2.0145 2.0145,0 4.5,0 C6.9855,0 9,2.0145 9,4.5 C9,5.3805 8.743,6.199 8.3065,6.8925 L12,10.586 L10.586,12 Z M4.5,8 C6.4295,8 8,6.43 8,4.5 C8,2.57 6.4295,1 4.5,1 C2.5705,1 1,2.57 1,4.5 C1,6.43 2.5705,8 4.5,8 Z" id="Shape-Copy-2"></path>
        </g>
    </g>
</svg>