<?xml version="1.0" encoding="UTF-8"?>
<svg width="18px" height="16px" viewBox="0 0 18 16" version="1.1" xmlns="http://www.w3.org/2000/svg" xmlns:xlink="http://www.w3.org/1999/xlink">
    <!-- Generator: Sketch 44.1 (41455) - http://www.bohemiancoding.com/sketch -->
    <title>Artboard Copy 3</title>
    <desc>Created with Sketch.</desc>
    <defs></defs>
    <g id="Page-1" stroke="none" stroke-width="1" fill="none" fill-rule="evenodd" opacity="0.197633605">
        <g id="Artboard-Copy-3" fill-rule="nonzero" fill="#000000">
            <g id="iconmonstr-eye-3-copy-3" transform="translate(0.000000, 3.000000)">
                <path d="M11.25,5.25 C11.25,6.49275 10.24275,7.5 9,7.5 C7.75725,7.5 6.75,6.49275 6.75,5.25 C6.75,5.10075 6.765,4.95525 6.79275,4.81425 C7.89825,5.22 8.988,4.15275 8.5965,3.036 C8.727,3.0135 8.862,3 9,3 C10.24275,3 11.25,4.008 11.25,5.25 Z M9.01125,0 C3.3345,0 0,4.91325 0,4.91325 C0,4.91325 3.62625,10.5 9.01125,10.5 C14.811,10.5 18,4.91325 18,4.91325 C18,4.91325 14.78175,0 9.01125,0 Z M9,9 C6.92925,9 5.25,7.3215 5.25,5.25 C5.25,3.17925 6.92925,1.5 9,1.5 C11.0715,1.5 12.75,3.17925 12.75,5.25 C12.75,7.3215 11.0715,9 9,9 Z" id="Shape"></path>
            </g>
        </g>
    </g>
</svg>