<?xml version="1.0" encoding="UTF-8"?>
<svg width="195px" height="15px" viewBox="0 0 195 15" version="1.1" xmlns="http://www.w3.org/2000/svg" xmlns:xlink="http://www.w3.org/1999/xlink">
    <!-- Generator: Sketch 43.1 (39012) - http://www.bohemiancoding.com/sketch -->
    <title>Artboard</title>
    <desc>Created with Sketch.</desc>
    <defs></defs>
    <g id="Page-1" stroke="none" stroke-width="1" fill="none" fill-rule="evenodd">
        <g id="Artboard">
            <path d="M89.564,12.848 L89.564,1.4 L88.214,1.4 L88.214,14 L95.018,14 L95.018,12.848 L89.564,12.848 Z M97.52,2.66 C98.006,2.66 98.384,2.282 98.384,1.796 C98.384,1.328 98.006,0.95 97.52,0.95 C97.052,0.95 96.674,1.328 96.674,1.796 C96.674,2.282 97.052,2.66 97.52,2.66 Z M95.432,4.514 L95.432,5.558 L96.926,5.558 L96.926,14 L98.258,14 L98.258,4.514 L95.432,4.514 Z M105.296,1.526 C105.764,1.526 106.16,1.598 106.52,1.688 L106.7,0.68 C106.358,0.572 105.8,0.464 105.152,0.464 C103.28,0.464 102.29,1.472 102.29,3.218 L102.29,4.514 L100.976,4.514 L100.976,5.558 L102.29,5.558 L102.29,14 L103.622,14 L103.622,5.558 L106.214,5.558 L106.214,4.514 L103.622,4.514 L103.622,3.11 C103.622,2.066 104.126,1.526 105.296,1.526 Z M115.52,9.662 L108.968,9.662 L108.968,9.698 C108.968,11.93 110.102,13.154 112.046,13.154 C113.162,13.154 113.918,12.74 114.638,12.272 L115.16,13.136 C114.422,13.712 113.288,14.216 111.974,14.216 C109.274,14.216 107.672,12.29 107.672,9.698 L107.672,8.762 C107.672,6.278 109.202,4.298 111.704,4.298 C114.116,4.298 115.574,5.972 115.574,8.816 C115.574,9.122 115.556,9.446 115.52,9.662 Z M111.704,5.36 C109.976,5.36 108.986,6.656 108.968,8.69 L114.368,8.69 L114.368,8.564 C114.368,6.584 113.414,5.36 111.704,5.36 Z M126.572,14.216 C129.434,14.216 131.072,12.668 131.072,10.85 L131.072,10.4 C131.072,8.528 129.776,7.7 127.994,7.124 L126.356,6.602 C124.682,6.062 124.016,5.432 124.016,4.604 L124.016,4.226 C124.016,3.38 124.826,2.282 126.896,2.282 C128.3,2.282 129.254,2.678 130.298,3.614 L131.018,2.822 C129.974,1.778 128.642,1.184 126.878,1.184 C124.052,1.184 122.666,2.768 122.666,4.226 L122.666,4.622 C122.666,5.954 123.458,6.944 125.582,7.664 L127.382,8.258 C129.038,8.816 129.722,9.338 129.722,10.544 L129.722,10.832 C129.722,11.84 128.804,13.064 126.572,13.064 C124.682,13.064 123.854,12.488 122.9,11.768 L122.18,12.614 C123.08,13.514 124.394,14.216 126.572,14.216 Z M137.426,14.216 C138.542,14.216 139.586,13.766 140.324,13.172 L139.712,12.308 C139.1,12.758 138.416,13.136 137.444,13.136 C135.662,13.136 134.726,11.822 134.726,9.662 L134.726,8.816 C134.726,6.71 135.698,5.378 137.48,5.378 C138.434,5.378 139.1,5.684 139.73,6.242 L140.414,5.486 C139.604,4.712 138.668,4.298 137.444,4.298 C134.78,4.298 133.394,6.242 133.394,8.852 L133.394,9.644 C133.394,12.308 134.816,14.216 137.426,14.216 Z M143.888,2.66 C144.374,2.66 144.752,2.282 144.752,1.796 C144.752,1.328 144.374,0.95 143.888,0.95 C143.42,0.95 143.042,1.328 143.042,1.796 C143.042,2.282 143.42,2.66 143.888,2.66 Z M141.8,4.514 L141.8,5.558 L143.294,5.558 L143.294,14 L144.626,14 L144.626,4.514 L141.8,4.514 Z M155.426,9.662 L148.874,9.662 L148.874,9.698 C148.874,11.93 150.008,13.154 151.952,13.154 C153.068,13.154 153.824,12.74 154.544,12.272 L155.066,13.136 C154.328,13.712 153.194,14.216 151.88,14.216 C149.18,14.216 147.578,12.29 147.578,9.698 L147.578,8.762 C147.578,6.278 149.108,4.298 151.61,4.298 C154.022,4.298 155.48,5.972 155.48,8.816 C155.48,9.122 155.462,9.446 155.426,9.662 Z M151.61,5.36 C149.882,5.36 148.892,6.656 148.874,8.69 L154.274,8.69 L154.274,8.564 C154.274,6.584 153.32,5.36 151.61,5.36 Z M162.698,4.298 C161.294,4.298 160.304,4.856 159.602,5.774 L159.494,4.514 L158.36,4.514 L158.36,14 L159.692,14 L159.692,7.052 C160.34,6.008 161.222,5.378 162.41,5.378 C163.652,5.378 164.408,6.044 164.408,7.574 L164.408,14 L165.74,14 L165.74,7.466 C165.74,5.414 164.48,4.298 162.698,4.298 Z M172.544,14.216 C173.66,14.216 174.704,13.766 175.442,13.172 L174.83,12.308 C174.218,12.758 173.534,13.136 172.562,13.136 C170.78,13.136 169.844,11.822 169.844,9.662 L169.844,8.816 C169.844,6.71 170.816,5.378 172.598,5.378 C173.552,5.378 174.218,5.684 174.848,6.242 L175.532,5.486 C174.722,4.712 173.786,4.298 172.562,4.298 C169.898,4.298 168.512,6.242 168.512,8.852 L168.512,9.644 C168.512,12.308 169.934,14.216 172.544,14.216 Z M185.126,9.662 L178.574,9.662 L178.574,9.698 C178.574,11.93 179.708,13.154 181.652,13.154 C182.768,13.154 183.524,12.74 184.244,12.272 L184.766,13.136 C184.028,13.712 182.894,14.216 181.58,14.216 C178.88,14.216 177.278,12.29 177.278,9.698 L177.278,8.762 C177.278,6.278 178.808,4.298 181.31,4.298 C183.722,4.298 185.18,5.972 185.18,8.816 C185.18,9.122 185.162,9.446 185.126,9.662 Z M181.31,5.36 C179.582,5.36 178.592,6.656 178.574,8.69 L183.974,8.69 L183.974,8.564 C183.974,6.584 183.02,5.36 181.31,5.36 Z M190.67,14.216 C192.65,14.216 194.198,13.298 194.198,11.66 L194.198,11.354 C194.198,9.914 193.28,9.338 191.858,8.834 L190.598,8.384 C189.248,7.916 188.78,7.538 188.78,6.8 L188.78,6.656 C188.78,5.882 189.518,5.378 190.76,5.378 C191.75,5.378 192.524,5.612 193.442,6.242 L194.108,5.45 C193.226,4.712 192.056,4.298 190.742,4.298 C188.852,4.298 187.448,5.27 187.448,6.674 L187.448,6.98 C187.448,8.168 188.222,8.816 189.77,9.338 L191.03,9.788 C192.398,10.256 192.866,10.616 192.866,11.498 L192.866,11.642 C192.866,12.65 192.002,13.154 190.562,13.154 C189.356,13.154 188.474,12.758 187.7,12.128 L187.016,12.992 C187.934,13.73 189.158,14.216 190.67,14.216 Z" id="Life-Sciences-Copy" fill="#565656"></path>
            <path d="M8.91,14 L7.866,10.688 L3.51,10.688 L2.556,14 L0.27,14 L4.122,1.4 L7.2,1.4 L11.25,14 L8.91,14 Z M5.652,2.984 L4.014,8.87 L7.326,8.87 L5.652,2.984 Z M18.54,4.424 L18.54,11.336 C17.982,12.11 17.19,12.56 16.38,12.56 C15.498,12.56 15.03,12.074 15.03,11.21 L15.03,4.424 L12.798,4.424 L12.798,11.318 C12.798,13.118 14.148,14.234 15.84,14.234 C17.01,14.234 17.982,13.748 18.72,12.938 L18.882,14 L20.772,14 L20.772,4.424 L18.54,4.424 Z M28.692,12.434 C28.404,12.488 28.098,12.524 27.756,12.524 C26.964,12.524 26.586,12.2 26.586,11.498 L26.586,6.08 L28.656,6.08 L28.656,4.424 L26.586,4.424 L26.586,2.066 L24.588,2.066 L24.408,4.424 L22.896,4.424 L22.896,6.08 L24.354,6.08 L24.354,11.624 C24.354,13.424 25.416,14.234 27.252,14.234 C27.846,14.234 28.494,14.126 28.926,14 L28.692,12.434 Z M34.686,4.172 C37.638,4.172 39.222,6.08 39.222,8.708 L39.222,9.68 C39.222,12.362 37.638,14.234 34.686,14.234 C31.752,14.234 30.204,12.362 30.204,9.68 L30.204,8.708 C30.204,6.08 31.752,4.172 34.686,4.172 Z M34.686,5.864 C33.21,5.864 32.436,6.836 32.436,8.672 L32.436,9.68 C32.436,11.57 33.21,12.56 34.686,12.56 C36.18,12.56 36.99,11.57 36.99,9.68 L36.99,8.672 C36.99,6.836 36.18,5.864 34.686,5.864 Z M47.16,0.68 L49.392,0.68 L49.392,14 L47.646,14 L47.412,12.956 C46.782,13.73 45.954,14.234 44.784,14.234 C42.552,14.234 40.986,12.452 40.986,9.716 L40.986,8.708 C40.986,6.08 42.57,4.172 44.892,4.172 C45.828,4.172 46.548,4.46 47.16,5.018 L47.16,0.68 Z M45.18,12.56 C46.062,12.56 46.656,12.128 47.16,11.444 L47.16,6.656 C46.764,6.224 46.098,5.864 45.27,5.864 C43.992,5.864 43.218,6.836 43.218,8.654 L43.218,9.752 C43.218,11.66 43.974,12.56 45.18,12.56 Z M60.21,8.834 C60.21,9.23 60.174,9.626 60.138,9.914 L53.964,9.914 C54,11.75 54.846,12.56 56.502,12.56 C57.546,12.56 58.32,12.182 59.058,11.768 L59.85,13.1 C59.04,13.712 57.744,14.234 56.358,14.234 C53.442,14.234 51.786,12.308 51.786,9.716 L51.786,8.726 C51.786,6.134 53.406,4.172 56.07,4.172 C58.68,4.172 60.21,5.792 60.21,8.834 Z M58.212,8.456 L58.212,8.366 C58.212,6.71 57.474,5.81 56.088,5.81 C54.72,5.81 54,6.71 53.964,8.456 L58.212,8.456 Z M65.484,14.234 C67.554,14.234 69.318,13.316 69.318,11.534 L69.318,11.138 C69.318,9.68 68.346,9.05 66.978,8.564 L65.772,8.15 C64.548,7.718 64.224,7.394 64.224,6.89 L64.224,6.746 C64.224,6.242 64.692,5.828 65.7,5.828 C66.564,5.828 67.248,5.99 68.202,6.602 L69.228,5.378 C68.31,4.622 66.996,4.172 65.628,4.172 C63.504,4.172 61.992,5.234 61.992,6.764 L61.992,7.16 C61.992,8.366 62.802,9.086 64.296,9.626 L65.502,10.04 C66.762,10.472 67.104,10.76 67.104,11.39 L67.104,11.534 C67.104,12.254 66.42,12.578 65.286,12.578 C64.206,12.578 63.378,12.236 62.586,11.642 L61.524,12.92 C62.496,13.748 63.864,14.234 65.484,14.234 Z M77.76,14 L80.244,14 L76.23,8.294 L79.65,4.424 L77.202,4.424 L73.926,8.114 L73.926,0.68 L71.694,0.68 L71.694,14 L73.926,14 L73.926,10.58 L74.736,9.644 L77.76,14 Z" id="Autodesk-Copy" fill="#0D0D0D"></path>
        </g>
    </g>
</svg>